<svg width="22" height="22" viewBox="0 0 22 22" fill="none" xmlns="http://www.w3.org/2000/svg">
<path d="M9.16668 16.5C10.7937 16.4997 12.3739 15.955 13.6556 14.9527L17.6853 18.9823L18.9814 17.6862L14.9518 13.6565C15.9546 12.3747 16.4996 10.7942 16.5 9.16668C16.5 5.12326 13.2101 1.83334 9.16668 1.83334C5.12326 1.83334 1.83334 5.12326 1.83334 9.16668C1.83334 13.2101 5.12326 16.5 9.16668 16.5ZM9.16668 3.66668C12.1999 3.66668 14.6667 6.13343 14.6667 9.16668C14.6667 12.1999 12.1999 14.6667 9.16668 14.6667C6.13343 14.6667 3.66668 12.1999 3.66668 9.16668C3.66668 6.13343 6.13343 3.66668 9.16668 3.66668Z" fill="white"/>
<path d="M10.461 7.8705C10.8084 8.21884 11 8.679 11 9.16667H12.8333C12.8341 8.6849 12.7395 8.20774 12.5547 7.76278C12.37 7.31782 12.0989 6.91389 11.7572 6.57434C10.3693 5.18834 7.96309 5.18834 6.57617 6.57434L7.87051 7.87234C8.56717 7.1775 9.768 7.17934 10.461 7.8705Z" fill="white"/>
</svg>
