<svg width="279" height="49" viewBox="0 0 279 49" fill="none" xmlns="http://www.w3.org/2000/svg">
<path d="M12.128 38.064C18.8693 37.5947 25.0133 35.9947 30.56 33.264L33.056 40.56C26.0587 44.8693 17.9733 47.3653 8.8 48.048L0.672 40.496C2.592 32.1333 6.00533 24.56 10.912 17.776C16.5013 10.1387 23.2853 4.63467 31.264 1.264L43.424 10.032C42.3147 13.6587 40.3093 17.8613 37.408 22.64C36.5973 23.9627 35.8293 25.136 35.104 26.16L27.68 22.064C30.5813 17.072 32.5227 12.8693 33.504 9.456C28.1707 12.1013 23.456 16.1547 19.36 21.616C15.4347 26.9493 13.024 32.432 12.128 38.064ZM45.3695 17.328C47.4175 14.5547 49.9775 11.6747 53.0495 8.688L59.0015 13.296C58.5322 15.2587 58.1268 16.688 57.7855 17.584C63.2895 16.9867 67.2575 16.3893 69.6895 15.792C72.1215 15.1947 74.2335 14.6613 76.0255 14.192L77.8175 21.808C76.0682 22.32 74.2335 22.768 72.3135 23.152C69.3695 27.8027 66.9162 32.7307 64.9535 37.936C72.0362 35.504 77.2628 33.2427 80.6335 31.152L82.0415 37.616C78.1162 40.176 72.9748 42.8 66.6175 45.488C64.5695 46.3413 62.6068 47.088 60.7295 47.728L53.9455 40.944C56.7188 34.5867 59.6842 29.104 62.8415 24.496C59.8548 24.752 57.2095 24.9227 54.9055 25.008C54.2228 26.288 52.3882 29.488 49.4015 34.608L44.6655 37.616L38.5855 34.032C42.1268 30.192 44.5162 27.504 45.7535 25.968C46.9908 24.432 48.0575 23.1093 48.9535 22C47.7162 20.6347 46.5215 19.0773 45.3695 17.328ZM93.1765 33.648C91.1712 33.648 89.5925 33.4987 88.4405 33.2C87.7578 34.864 87.3312 36.9333 87.1605 39.408C94.4992 38.9813 101.582 37.3387 108.409 34.48C110.713 33.5413 112.931 32.432 115.065 31.152L116.409 37.616C112.441 40.1333 107.747 42.352 102.329 44.272C96.5685 46.32 91.1285 47.472 86.0085 47.728L78.0725 40.368C78.0725 34.48 79.6725 29.104 82.8725 24.24C85.1765 20.8693 87.7792 18.2027 90.6805 16.24C93.6245 14.2773 96.4405 12.8693 99.1285 12.016L109.945 20.976C108.878 25.4133 106.851 28.6347 103.865 30.64C100.878 32.6453 97.3152 33.648 93.1765 33.648ZM91.1285 27.44C93.6032 27.44 95.7578 26.7573 97.5925 25.392C99.7258 23.7707 100.793 21.5093 100.793 18.608C96.4832 20.9547 93.2618 23.8987 91.1285 27.44ZM132.158 41.968C128.787 44.6133 124.905 46.5333 120.51 47.728L112.574 40.368C112.574 36.9973 113.086 33.6907 114.11 30.448C115.134 27.2053 116.649 24.2827 118.654 21.68C120.659 19.0773 123.134 16.9227 126.078 15.216C129.065 13.4667 132.499 12.4213 136.382 12.08L140.606 18.544C141.118 17.7333 142.206 16.3253 143.87 14.32L150.142 19.696C145.918 25.2 142.419 31.088 139.646 37.36L139.454 37.488C141.929 36.848 144.83 35.76 148.158 34.224C151.486 32.6453 153.598 31.6213 154.494 31.152L155.902 37.616C153.385 39.4507 149.203 41.8187 143.358 44.72C141.054 45.872 138.963 46.7893 137.086 47.472L132.158 41.968ZM121.534 38.512C126.099 37.2747 130.259 34.2453 134.014 29.424C135.123 26.992 135.955 23.9627 136.51 20.336C132.115 20.7627 128.51 22.704 125.694 26.16C122.921 29.5733 121.534 33.6907 121.534 38.512ZM170.124 17.712C174.092 17.2853 177.014 16.816 178.892 16.304L180.364 23.216C176.609 24.1547 171.83 24.7093 166.028 24.88C163.425 30 161.484 34.6507 160.204 38.832C163.66 38.2347 167.35 37.3813 171.276 36.272C175.201 35.12 179.148 33.4133 183.116 31.152L184.46 37.616C180.577 40.304 176.14 42.608 171.148 44.528C166.241 46.4053 161.889 47.472 158.092 47.728L150.155 40.368C152.673 32.0053 156.961 23.1947 163.02 13.936C164.897 11.0347 166.902 8.24 169.036 5.552L174.732 10.8C173.068 13.104 171.532 15.408 170.124 17.712ZM198.365 9.776C197.383 8.752 196.893 7.51466 196.893 6.064C196.893 4.61333 197.383 3.39733 198.365 2.416C199.389 1.392 200.626 0.879997 202.077 0.879997C203.527 0.879997 204.743 1.392 205.725 2.416C206.749 3.39733 207.261 4.61333 207.261 6.064C207.261 7.51466 206.749 8.752 205.725 9.776C204.743 10.7573 203.527 11.248 202.077 11.248C200.626 11.248 199.389 10.7573 198.365 9.776ZM188.701 37.936C193.053 36.6133 198.279 34.352 204.381 31.152L205.725 37.616C201.586 40.304 196.594 42.928 190.749 45.488C188.786 46.3413 186.866 47.088 184.989 47.728L177.628 40.944C179.719 35.2267 183.474 28.1013 188.893 19.568C190.514 17.008 192.093 14.768 193.629 12.848L199.965 17.52C196.85 21.7867 193.821 26.928 190.877 32.944C190.023 34.736 189.298 36.4 188.701 37.936ZM221.855 39.408C217.716 43.0773 213.62 45.8507 209.567 47.728L201.054 40.368C201.822 35.9307 202.868 32.048 204.191 28.72C206.281 23.3013 208.948 17.648 212.191 11.76L219.231 16.56C216.756 20.9547 215.007 24.496 213.983 27.184C212.447 31.2373 211.337 34.8213 210.655 37.936C214.665 36.1013 219.807 30.64 226.079 21.552C227.956 18.864 229.727 16.0693 231.391 13.168L238.751 17.968C234.996 24.1973 231.071 29.616 226.975 34.224C229.492 34.096 232.415 33.648 235.743 32.88C239.071 32.112 241.353 31.536 242.591 31.152L243.999 37.616C240.329 39.5787 235.593 41.392 229.791 43.056C228.212 43.4827 226.868 43.8027 225.759 44.016L221.855 39.408ZM255.114 33.648C253.109 33.648 251.53 33.4987 250.378 33.2C249.695 34.864 249.269 36.9333 249.098 39.408C256.437 38.9813 263.519 37.3387 270.346 34.48C272.65 33.5413 274.869 32.432 277.002 31.152L278.346 37.616C274.378 40.1333 269.685 42.352 264.266 44.272C258.506 46.32 253.066 47.472 247.946 47.728L240.01 40.368C240.01 34.48 241.61 29.104 244.81 24.24C247.114 20.8693 249.717 18.2027 252.618 16.24C255.562 14.2773 258.378 12.8693 261.066 12.016L271.882 20.976C270.815 25.4133 268.789 28.6347 265.802 30.64C262.815 32.6453 259.253 33.648 255.114 33.648ZM253.066 27.44C255.541 27.44 257.695 26.7573 259.53 25.392C261.663 23.7707 262.73 21.5093 262.73 18.608C258.421 20.9547 255.199 23.8987 253.066 27.44Z" fill="white"/>
</svg>
