<svg width="20" height="20" viewBox="0 0 20 20" fill="none" xmlns="http://www.w3.org/2000/svg">
<path fill-rule="evenodd" clip-rule="evenodd" d="M6.66667 2.5C7.10869 2.5 7.53262 2.67559 7.84518 2.98816C8.15774 3.30072 8.33333 3.72464 8.33333 4.16667V6.66667H13.3333C13.7754 6.66667 14.1993 6.84226 14.5118 7.15482C14.8244 7.46738 15 7.89131 15 8.33333C15 8.77536 14.8244 9.19928 14.5118 9.51184C14.1993 9.8244 13.7754 10 13.3333 10H8.33333V11.6667C8.33333 12.3297 8.59673 12.9656 9.06557 13.4344C9.53441 13.9033 10.1703 14.1667 10.8333 14.1667H13.3333C13.7754 14.1667 14.1993 14.3423 14.5118 14.6548C14.8244 14.9674 15 15.3913 15 15.8333C15 16.2754 14.8244 16.6993 14.5118 17.0118C14.1993 17.3244 13.7754 17.5 13.3333 17.5H10.8333C9.28624 17.5 7.80251 16.8854 6.70854 15.7915C5.61458 14.6975 5 13.2138 5 11.6667V4.16667C5 3.72464 5.17559 3.30072 5.48816 2.98816C5.80072 2.67559 6.22464 2.5 6.66667 2.5V2.5Z" fill="white"/>
</svg>
