<svg width="20" height="20" viewBox="0 0 20 20" fill="none" xmlns="http://www.w3.org/2000/svg">
<path d="M10.405 3.97583C6.87998 3.97583 5.10248 6.50333 5.10248 8.61083C5.10248 9.88833 5.58664 11.0225 6.62164 11.445C6.79248 11.515 6.94414 11.4483 6.99331 11.2608L7.14498 10.6633C7.19581 10.4792 7.17581 10.4133 7.03914 10.2508C6.73998 9.89916 6.54914 9.44083 6.54914 8.795C6.54914 6.92 7.95164 5.24166 10.2025 5.24166C12.1958 5.24166 13.2908 6.46083 13.2908 8.085C13.2908 10.225 12.3433 12.03 10.9375 12.03C10.1608 12.03 9.57998 11.3883 9.76665 10.6008C9.98998 9.65916 10.4216 8.645 10.4216 7.9675C10.4216 7.36 10.095 6.85416 9.42164 6.85416C8.62831 6.85416 7.98998 7.67416 7.98998 8.77416C7.98998 9.475 8.22831 9.94833 8.22831 9.94833L7.27331 13.9917C6.98998 15.1917 7.23081 16.6633 7.25248 16.8125C7.26331 16.8992 7.37664 16.9217 7.42748 16.855C7.50081 16.7592 8.44665 15.5908 8.76665 14.4258C8.85915 14.0958 9.28915 12.3883 9.28915 12.3883C9.54831 12.8792 10.3 13.3117 11.1016 13.3117C13.4875 13.3117 15.105 11.1383 15.105 8.22583C15.1025 6.02583 13.2383 3.97583 10.405 3.97583V3.97583Z" fill="white"/>
</svg>
