<svg width="20" height="20" viewBox="0 0 20 20" fill="none" xmlns="http://www.w3.org/2000/svg">
<path d="M15 2.5H5C3.58333 2.5 2.5 3.58333 2.5 5V15C2.5 16.4167 3.58333 17.5 5 17.5H15C16.4167 17.5 17.5 16.4167 17.5 15V5C17.5 3.58333 16.4167 2.5 15 2.5ZM10 7.5C11.4167 7.5 12.5 8.58333 12.5 10C12.5 11.4167 11.4167 12.5 10 12.5C8.58333 12.5 7.5 11.4167 7.5 10C7.5 8.58333 8.58333 7.5 10 7.5ZM13.1667 5.83333C13.1667 5.25 13.6667 4.83333 14.1667 4.83333C14.6667 4.83333 15.1667 5.33333 15.1667 5.83333C15.1667 6.33333 14.75 6.83333 14.1667 6.83333C13.5833 6.83333 13.1667 6.41667 13.1667 5.83333V5.83333ZM15 15.8333H5C4.5 15.8333 4.16667 15.5 4.16667 15V10H5.83333C5.83333 12.3333 7.66667 14.1667 10 14.1667C12.3333 14.1667 14.1667 12.3333 14.1667 10H15.8333V15C15.8333 15.5 15.5 15.8333 15 15.8333Z" fill="white"/>
</svg>
